<mxfile host="app.diagrams.net" modified="2024-06-23T07:49:39.496Z" agent="Mozilla/5.0 (Windows NT 10.0; Win64; x64) AppleWebKit/537.36 (KHTML, like Gecko) Chrome/126.0.0.0 Safari/537.36" etag="KHEbNgMBVenfR4huqY11" version="24.6.2" type="device">
  <diagram name="Page-1" id="ZhlzbXhMM7MoTjWgiKq-">
    <mxGraphModel dx="988" dy="605" grid="1" gridSize="10" guides="1" tooltips="1" connect="1" arrows="1" fold="1" page="1" pageScale="1" pageWidth="850" pageHeight="1100" math="0" shadow="0">
      <root>
        <mxCell id="0" />
        <mxCell id="1" parent="0" />
        <mxCell id="1eFg0LJDpMYC2e9N4T2s-1" value="SpaceX API&amp;nbsp;&lt;div&gt;Request&lt;/div&gt;" style="rounded=1;whiteSpace=wrap;html=1;" vertex="1" parent="1">
          <mxGeometry x="120" y="40" width="120" height="60" as="geometry" />
        </mxCell>
        <mxCell id="1eFg0LJDpMYC2e9N4T2s-2" value="" style="endArrow=classic;html=1;rounded=0;" edge="1" parent="1">
          <mxGeometry width="50" height="50" relative="1" as="geometry">
            <mxPoint x="180" y="100" as="sourcePoint" />
            <mxPoint x="180" y="150" as="targetPoint" />
          </mxGeometry>
        </mxCell>
        <mxCell id="1eFg0LJDpMYC2e9N4T2s-3" value="Got the Json file extracted data to list" style="rounded=1;whiteSpace=wrap;html=1;" vertex="1" parent="1">
          <mxGeometry x="120" y="150" width="120" height="60" as="geometry" />
        </mxCell>
        <mxCell id="1eFg0LJDpMYC2e9N4T2s-4" value="" style="endArrow=classic;html=1;rounded=0;exitX=0.5;exitY=1;exitDx=0;exitDy=0;" edge="1" parent="1" source="1eFg0LJDpMYC2e9N4T2s-3">
          <mxGeometry width="50" height="50" relative="1" as="geometry">
            <mxPoint x="160" y="260" as="sourcePoint" />
            <mxPoint x="180" y="260" as="targetPoint" />
          </mxGeometry>
        </mxCell>
        <mxCell id="1eFg0LJDpMYC2e9N4T2s-5" value="Json_normalize&amp;nbsp;" style="rounded=1;whiteSpace=wrap;html=1;" vertex="1" parent="1">
          <mxGeometry x="120" y="260" width="120" height="60" as="geometry" />
        </mxCell>
        <mxCell id="1eFg0LJDpMYC2e9N4T2s-6" value="Extracted relevant dictionary data&amp;nbsp;" style="rounded=1;whiteSpace=wrap;html=1;" vertex="1" parent="1">
          <mxGeometry x="290" y="260" width="120" height="60" as="geometry" />
        </mxCell>
        <mxCell id="1eFg0LJDpMYC2e9N4T2s-7" value="" style="endArrow=classic;html=1;rounded=0;exitX=1;exitY=0.5;exitDx=0;exitDy=0;entryX=0;entryY=0.5;entryDx=0;entryDy=0;" edge="1" parent="1" source="1eFg0LJDpMYC2e9N4T2s-5" target="1eFg0LJDpMYC2e9N4T2s-6">
          <mxGeometry width="50" height="50" relative="1" as="geometry">
            <mxPoint x="240" y="315" as="sourcePoint" />
            <mxPoint x="290" y="265" as="targetPoint" />
          </mxGeometry>
        </mxCell>
        <mxCell id="1eFg0LJDpMYC2e9N4T2s-9" value="" style="endArrow=classic;html=1;rounded=0;exitX=0.443;exitY=0.003;exitDx=0;exitDy=0;exitPerimeter=0;entryX=0.5;entryY=1;entryDx=0;entryDy=0;" edge="1" parent="1" source="1eFg0LJDpMYC2e9N4T2s-6" target="1eFg0LJDpMYC2e9N4T2s-10">
          <mxGeometry width="50" height="50" relative="1" as="geometry">
            <mxPoint x="350" y="260" as="sourcePoint" />
            <mxPoint x="340" y="210" as="targetPoint" />
          </mxGeometry>
        </mxCell>
        <mxCell id="1eFg0LJDpMYC2e9N4T2s-10" value="Converted Dictionary data to Dataframe" style="rounded=1;whiteSpace=wrap;html=1;" vertex="1" parent="1">
          <mxGeometry x="280" y="150" width="120" height="60" as="geometry" />
        </mxCell>
        <mxCell id="1eFg0LJDpMYC2e9N4T2s-11" value="From the Dictionary data we took only Falcon 9 launches" style="rounded=1;whiteSpace=wrap;html=1;" vertex="1" parent="1">
          <mxGeometry x="290" y="40" width="120" height="60" as="geometry" />
        </mxCell>
        <mxCell id="1eFg0LJDpMYC2e9N4T2s-12" value="" style="endArrow=classic;html=1;rounded=0;entryX=0.5;entryY=1;entryDx=0;entryDy=0;" edge="1" parent="1" target="1eFg0LJDpMYC2e9N4T2s-11">
          <mxGeometry width="50" height="50" relative="1" as="geometry">
            <mxPoint x="340" y="150" as="sourcePoint" />
            <mxPoint x="390" y="100" as="targetPoint" />
          </mxGeometry>
        </mxCell>
        <mxCell id="1eFg0LJDpMYC2e9N4T2s-14" value="Finding the missing values in payload mass" style="rounded=1;whiteSpace=wrap;html=1;" vertex="1" parent="1">
          <mxGeometry x="450" y="40" width="120" height="60" as="geometry" />
        </mxCell>
        <mxCell id="1eFg0LJDpMYC2e9N4T2s-15" value="" style="endArrow=classic;html=1;rounded=0;entryX=0;entryY=0.5;entryDx=0;entryDy=0;" edge="1" parent="1" target="1eFg0LJDpMYC2e9N4T2s-14">
          <mxGeometry width="50" height="50" relative="1" as="geometry">
            <mxPoint x="410" y="70" as="sourcePoint" />
            <mxPoint x="460" y="20" as="targetPoint" />
          </mxGeometry>
        </mxCell>
        <mxCell id="1eFg0LJDpMYC2e9N4T2s-16" value="Calculated the mean for payload mass" style="rounded=1;whiteSpace=wrap;html=1;" vertex="1" parent="1">
          <mxGeometry x="460" y="150" width="120" height="60" as="geometry" />
        </mxCell>
        <mxCell id="1eFg0LJDpMYC2e9N4T2s-17" value="" style="endArrow=classic;html=1;rounded=0;exitX=0.5;exitY=1;exitDx=0;exitDy=0;" edge="1" parent="1" source="1eFg0LJDpMYC2e9N4T2s-14">
          <mxGeometry width="50" height="50" relative="1" as="geometry">
            <mxPoint x="470" y="150" as="sourcePoint" />
            <mxPoint x="520" y="150" as="targetPoint" />
          </mxGeometry>
        </mxCell>
        <mxCell id="1eFg0LJDpMYC2e9N4T2s-19" value="Replaced null values with mean" style="rounded=1;whiteSpace=wrap;html=1;" vertex="1" parent="1">
          <mxGeometry x="460" y="260" width="120" height="60" as="geometry" />
        </mxCell>
        <mxCell id="1eFg0LJDpMYC2e9N4T2s-20" value="" style="endArrow=classic;html=1;rounded=0;exitX=0.5;exitY=1;exitDx=0;exitDy=0;entryX=0.5;entryY=0;entryDx=0;entryDy=0;" edge="1" parent="1" source="1eFg0LJDpMYC2e9N4T2s-16" target="1eFg0LJDpMYC2e9N4T2s-19">
          <mxGeometry width="50" height="50" relative="1" as="geometry">
            <mxPoint x="495" y="260" as="sourcePoint" />
            <mxPoint x="530" y="250" as="targetPoint" />
          </mxGeometry>
        </mxCell>
        <mxCell id="1eFg0LJDpMYC2e9N4T2s-21" value="Using Get method and Url got the data form SpaceX wiki" style="rounded=1;whiteSpace=wrap;html=1;" vertex="1" parent="1">
          <mxGeometry x="110" y="540" width="120" height="60" as="geometry" />
        </mxCell>
        <mxCell id="1eFg0LJDpMYC2e9N4T2s-22" value="beaufifulSoap&lt;div&gt;Htmlparser to prettify the data&lt;/div&gt;" style="rounded=1;whiteSpace=wrap;html=1;" vertex="1" parent="1">
          <mxGeometry x="110" y="650" width="120" height="60" as="geometry" />
        </mxCell>
        <mxCell id="1eFg0LJDpMYC2e9N4T2s-23" value="find launch info html table" style="rounded=1;whiteSpace=wrap;html=1;" vertex="1" parent="1">
          <mxGeometry x="110" y="750" width="120" height="60" as="geometry" />
        </mxCell>
        <mxCell id="1eFg0LJDpMYC2e9N4T2s-25" value="" style="endArrow=classic;html=1;rounded=0;entryX=0.5;entryY=0;entryDx=0;entryDy=0;exitX=0.5;exitY=1;exitDx=0;exitDy=0;" edge="1" parent="1" source="1eFg0LJDpMYC2e9N4T2s-21" target="1eFg0LJDpMYC2e9N4T2s-22">
          <mxGeometry width="50" height="50" relative="1" as="geometry">
            <mxPoint x="155" y="650" as="sourcePoint" />
            <mxPoint x="205" y="600" as="targetPoint" />
          </mxGeometry>
        </mxCell>
        <mxCell id="1eFg0LJDpMYC2e9N4T2s-26" value="" style="endArrow=classic;html=1;rounded=0;" edge="1" parent="1">
          <mxGeometry width="50" height="50" relative="1" as="geometry">
            <mxPoint x="169.5" y="710" as="sourcePoint" />
            <mxPoint x="170" y="750" as="targetPoint" />
          </mxGeometry>
        </mxCell>
        <mxCell id="1eFg0LJDpMYC2e9N4T2s-27" value="Created dictionary for the table" style="rounded=1;whiteSpace=wrap;html=1;" vertex="1" parent="1">
          <mxGeometry x="290" y="750" width="120" height="60" as="geometry" />
        </mxCell>
        <mxCell id="1eFg0LJDpMYC2e9N4T2s-28" value="Iterated table cells to extract data to dictionary" style="rounded=1;whiteSpace=wrap;html=1;" vertex="1" parent="1">
          <mxGeometry x="290" y="650" width="120" height="60" as="geometry" />
        </mxCell>
        <mxCell id="1eFg0LJDpMYC2e9N4T2s-29" value="Converted dictionary to DataFrame" style="rounded=1;whiteSpace=wrap;html=1;" vertex="1" parent="1">
          <mxGeometry x="290" y="540" width="120" height="60" as="geometry" />
        </mxCell>
        <mxCell id="1eFg0LJDpMYC2e9N4T2s-30" value="" style="endArrow=classic;html=1;rounded=0;exitX=0.5;exitY=1;exitDx=0;exitDy=0;" edge="1" parent="1" source="1eFg0LJDpMYC2e9N4T2s-29">
          <mxGeometry width="50" height="50" relative="1" as="geometry">
            <mxPoint x="349.5" y="610" as="sourcePoint" />
            <mxPoint x="350" y="650" as="targetPoint" />
          </mxGeometry>
        </mxCell>
        <mxCell id="1eFg0LJDpMYC2e9N4T2s-31" value="" style="endArrow=classic;html=1;rounded=0;exitX=0.5;exitY=1;exitDx=0;exitDy=0;" edge="1" parent="1" source="1eFg0LJDpMYC2e9N4T2s-28">
          <mxGeometry width="50" height="50" relative="1" as="geometry">
            <mxPoint x="350" y="720" as="sourcePoint" />
            <mxPoint x="349.5" y="750" as="targetPoint" />
          </mxGeometry>
        </mxCell>
        <mxCell id="1eFg0LJDpMYC2e9N4T2s-32" value="" style="endArrow=classic;html=1;rounded=0;entryX=0;entryY=0.5;entryDx=0;entryDy=0;" edge="1" parent="1" target="1eFg0LJDpMYC2e9N4T2s-27">
          <mxGeometry width="50" height="50" relative="1" as="geometry">
            <mxPoint x="230" y="779.5" as="sourcePoint" />
            <mxPoint x="280" y="779.5" as="targetPoint" />
          </mxGeometry>
        </mxCell>
      </root>
    </mxGraphModel>
  </diagram>
</mxfile>
